<?xml version="1.0" encoding="iso-8859-1"?>
<!-- Generator: Adobe Illustrator 19.0.0, SVG Export Plug-In . SVG Version: 6.00 Build 0)  -->
<svg version="1.1" id="Capa_1" xmlns="http://www.w3.org/2000/svg" xmlns:xlink="http://www.w3.org/1999/xlink" x="0px" y="0px"
	 viewBox="0 0 512 512" style="enable-background:new 0 0 512 512;" xml:space="preserve">
<linearGradient id="SVGID_1_" gradientUnits="userSpaceOnUse" x1="254.8336" y1="230.513" x2="254.8336" y2="-93.917" gradientTransform="matrix(1.0039 0 0 -1.0039 0.1922 516.5609)">
	<stop  offset="0" style="stop-color:#E2EDF2"/>
	<stop  offset="1" style="stop-color:#9FC7E2"/>
</linearGradient>
<polygon style="fill:url(#SVGID_1_);" points="436.758,233.731 436.758,512 75.292,512 75.292,233.731 256.025,51.904 "/>
<linearGradient id="SVGID_2_" gradientUnits="userSpaceOnUse" x1="247.6676" y1="274.032" x2="158.6776" y2="363.022" gradientTransform="matrix(1.0039 0 0 -1.0039 0.1922 516.5609)">
	<stop  offset="0" style="stop-color:#E2EDF2;stop-opacity:0"/>
	<stop  offset="1" style="stop-color:#A5B0B8"/>
</linearGradient>
<polygon style="fill:url(#SVGID_2_);" points="436.758,233.731 436.758,512 322.632,512 75.292,264.66 75.292,233.731 
	256.025,51.904 "/>
<linearGradient id="SVGID_3_" gradientUnits="userSpaceOnUse" x1="354.0507" y1="186.905" x2="250.5807" y2="290.365" gradientTransform="matrix(1.0039 0 0 -1.0039 0.1922 516.5609)">
	<stop  offset="0" style="stop-color:#E2EDF2;stop-opacity:0"/>
	<stop  offset="1" style="stop-color:#A5B0B8"/>
</linearGradient>
<path style="fill:url(#SVGID_3_);" d="M436.703,494.611V325.032L295.209,183.539c-9.583-10.881-23.604-17.765-39.209-17.765
	c-28.817,0-52.259,23.444-52.259,52.259v38.432c0,5.02,2.698,9.41,6.709,11.832C210.45,268.298,436.66,494.544,436.703,494.611z"/>
<linearGradient id="SVGID_4_" gradientUnits="userSpaceOnUse" x1="373.6317" y1="247.5261" x2="200.5217" y2="420.626" gradientTransform="matrix(1.0039 0 0 -1.0039 0.1922 516.5609)">
	<stop  offset="0" style="stop-color:#E2EDF2;stop-opacity:0"/>
	<stop  offset="1" style="stop-color:#A5B0B8"/>
</linearGradient>
<path style="fill:url(#SVGID_4_);" d="M163.751,144.737c5.765,12.36,13.92,23.38,23.902,32.435l249.104,249.105V233.731
	L256.025,51.904L163.751,144.737z"/>
<linearGradient id="SVGID_5_" gradientUnits="userSpaceOnUse" x1="247.2222" y1="48.8766" x2="123.6822" y2="172.4165" gradientTransform="matrix(1.0039 0 0 -1.0039 0.1922 516.5609)">
	<stop  offset="0" style="stop-color:#E2EDF2;stop-opacity:0"/>
	<stop  offset="1" style="stop-color:#A5B0B8"/>
</linearGradient>
<path style="fill:url(#SVGID_5_);" d="M380.902,512H204.123l-97.176-97.176c-4.278-2.773-7.126-7.586-7.126-13.045v-78.211
	c0-8.568,6.976-15.545,15.545-15.545h56.385c5.471,0,10.284,2.848,13.058,7.126l-0.423,0.336L380.902,512z"/>
<path style="fill:#503837;" d="M171.753,408.211h-56.38c-3.556,0-6.438-2.882-6.438-6.438v-78.198c0-3.556,2.882-6.438,6.438-6.438
	h56.38c3.556,0,6.438,2.882,6.438,6.438v78.198C178.191,405.328,175.309,408.211,171.753,408.211z"/>
<path style="fill:#FFFFFF;" d="M171.754,417.323h-56.38c-8.574,0-15.55-6.975-15.55-15.55v-78.199c0-8.574,6.975-15.55,15.55-15.55
	h56.38c8.574,0,15.55,6.975,15.55,15.55v78.199C187.304,410.348,180.328,417.323,171.754,417.323z M118.048,399.098h51.03v-72.849
	h-51.03V399.098z"/>
<linearGradient id="SVGID_6_" gradientUnits="userSpaceOnUse" x1="440.2769" y1="82.0112" x2="356.6469" y2="165.6512" gradientTransform="matrix(1.0039 0 0 -1.0039 0.1922 516.5609)">
	<stop  offset="0" style="stop-color:#E2EDF2;stop-opacity:0"/>
	<stop  offset="1" style="stop-color:#A5B0B8"/>
</linearGradient>
<path style="fill:url(#SVGID_6_);" d="M436.764,340.283V512h-5.547l-97.176-97.176c-4.291-2.773-7.138-7.586-7.138-13.045v-78.211
	c0-8.568,6.976-15.545,15.558-15.545h56.372c5.472,0,10.284,2.848,13.058,7.126l0.224,0.174l-0.15,0.162L436.764,340.283z"/>
<path style="fill:#503837;" d="M398.839,408.211h-56.38c-3.556,0-6.438-2.882-6.438-6.438v-78.198c0-3.556,2.882-6.438,6.438-6.438
	h56.38c3.556,0,6.438,2.882,6.438,6.438v78.198C405.276,405.328,402.394,408.211,398.839,408.211z"/>
<path style="fill:#FFFFFF;" d="M398.839,417.323h-56.38c-8.574,0-15.55-6.975-15.55-15.55v-78.199c0-8.574,6.975-15.55,15.55-15.55
	h56.38c8.575,0,15.55,6.975,15.55,15.55v78.199C414.389,410.348,407.414,417.323,398.839,417.323z M345.133,399.098h51.03v-72.849
	h-51.03V399.098z"/>
<linearGradient id="SVGID_7_" gradientUnits="userSpaceOnUse" x1="254.8086" y1="329.123" x2="254.8086" y2="146.803" gradientTransform="matrix(1.0039 0 0 -1.0039 0.1922 516.5609)">
	<stop  offset="0" style="stop-color:#FF5D00"/>
	<stop  offset="1" style="stop-color:#D54003"/>
</linearGradient>
<path style="fill:url(#SVGID_7_);" d="M477.629,258.869L266.902,48.074c-6.006-6.006-15.745-6.006-21.751,0L34.371,258.852
	c-3.929,3.929-3.929,10.3,0,14.23l8.983,8.983c3.929,3.929,10.3,3.929,14.23,0L253.163,86.488c1.581-1.581,4.145-1.581,5.726,0
	l195.526,195.594c3.929,3.929,10.3,3.929,14.23,0l8.983-8.983C481.558,269.169,481.558,262.799,477.629,258.869z"/>
<linearGradient id="SVGID_8_" gradientUnits="userSpaceOnUse" x1="406.8955" y1="301.4899" x2="328.6255" y2="379.7498" gradientTransform="matrix(1.0039 0 0 -1.0039 0.1922 516.5609)">
	<stop  offset="0" style="stop-color:#D54003;stop-opacity:0"/>
	<stop  offset="1" style="stop-color:#A40002"/>
</linearGradient>
<path style="fill:url(#SVGID_8_);" d="M266.902,48.074c-3.004-3.004-6.939-4.505-10.875-4.505v41.733
	c1.036,0,2.072,0.396,2.863,1.186l195.526,195.594c3.929,3.929,10.3,3.929,14.23,0l8.983-8.983c3.929-3.929,3.929-10.3,0-14.23
	L266.902,48.074z"/>
<path style="fill:#DB9E36;" d="M218.36,511.995v-175.57c0-20.802,16.864-37.665,37.665-37.665l0,0
	c20.802,0,37.665,16.864,37.665,37.665v175.57H218.36z"/>
<path style="fill:#9E6429;" d="M303.019,511.995h-18.654V336.212c0-15.469-12.656-28.126-28.126-28.126h-0.425
	c-15.534,0-28.126,12.592-28.126,28.126v175.782h-18.654V336.425c0-25.953,21.039-46.993,46.993-46.993l0,0
	c25.953,0,46.993,21.039,46.993,46.993L303.019,511.995L303.019,511.995z"/>
<circle style="fill:#FFFFFF;" cx="242.658" cy="372.877" r="8.505"/>
<rect x="75.286" y="462.236" style="fill:#654E48;" width="361.472" height="49.763"/>
<linearGradient id="SVGID_9_" gradientUnits="userSpaceOnUse" x1="54.181" y1="56.8553" x2="119.471" y2="-8.4247" gradientTransform="matrix(1.0039 0 0 -1.0039 0.1922 516.5609)">
	<stop  offset="0" style="stop-color:#9EB644"/>
	<stop  offset="1" style="stop-color:#738611"/>
</linearGradient>
<path style="fill:url(#SVGID_9_);" d="M137.66,492.55c0,6.868-1.299,13.421-3.67,19.445H35.095
	c-2.371-6.024-3.67-12.577-3.67-19.445c0-6.687,1.233-13.08,3.491-18.97c7.636-19.976,26.976-34.147,49.627-34.147
	s41.991,14.171,49.627,34.147C136.427,479.47,137.66,485.863,137.66,492.55z"/>
<linearGradient id="SVGID_10_" gradientUnits="userSpaceOnUse" x1="111.0217" y1="42.4961" x2="158.3817" y2="-4.8639" gradientTransform="matrix(1.0039 0 0 -1.0039 0.1922 516.5609)">
	<stop  offset="0" style="stop-color:#9EB644"/>
	<stop  offset="1" style="stop-color:#738611"/>
</linearGradient>
<path style="fill:url(#SVGID_10_);" d="M171.912,497.889c0,4.981-0.943,9.736-2.662,14.105H97.511
	c-1.72-4.369-2.662-9.124-2.662-14.105c0-4.851,0.894-9.488,2.532-13.762c5.539-14.491,19.568-24.771,36-24.771
	s30.461,10.28,36,24.771C171.017,488.401,171.912,493.039,171.912,497.889z"/>
<linearGradient id="SVGID_11_" gradientUnits="userSpaceOnUse" x1="382.0495" y1="65.5239" x2="458.1495" y2="-10.5761" gradientTransform="matrix(1.0039 0 0 -1.0039 0.1922 516.5609)">
	<stop  offset="0" style="stop-color:#9EB644"/>
	<stop  offset="1" style="stop-color:#738611"/>
</linearGradient>
<path style="fill:url(#SVGID_11_);" d="M480.575,489.328c0,8.005-1.515,15.645-4.279,22.667H361.018
	c-2.764-7.021-4.279-14.661-4.279-22.667c0-7.795,1.438-15.248,4.069-22.113c8.901-23.286,31.446-39.804,57.849-39.804
	c26.404,0,48.948,16.519,57.849,39.804C479.139,474.081,480.575,481.533,480.575,489.328z"/>
<path style="fill:#654E48;" d="M294.433,261.953h-76.865c-3.031,0-5.487-2.457-5.487-5.487v-38.433
	c0-24.257,19.664-43.921,43.921-43.921l0,0c24.257,0,43.921,19.664,43.921,43.921v38.433
	C299.921,259.497,297.463,261.953,294.433,261.953z"/>
<path style="fill:#FFFFFF;" d="M256,165.775c-28.816,0-52.259,23.444-52.259,52.259v38.432c0,7.625,6.202,13.827,13.827,13.827
	h76.865c7.625,0,13.827-6.202,13.827-13.827v-38.432C308.259,189.217,284.817,165.775,256,165.775z M291.293,213.586H264.34V183.45
	C278.542,186.875,289.445,198.839,291.293,213.586z M247.66,183.45v30.137h-26.953C222.555,198.839,233.457,186.875,247.66,183.45z
	 M220.419,230.264h27.241v23.35h-27.241V230.264z M264.34,253.615v-23.35h27.241v23.35H264.34z"/>
<linearGradient id="SVGID_12_" gradientUnits="userSpaceOnUse" x1="256.9097" y1="259.293" x2="256.9097" y2="321.433" gradientTransform="matrix(1.0039 0 0 -1.0039 0.1922 516.5609)">
	<stop  offset="0" style="stop-color:#E2EDF2;stop-opacity:0"/>
	<stop  offset="1" style="stop-color:#A5B0B8"/>
</linearGradient>
<path style="fill:url(#SVGID_12_);" d="M256,165.775c-21.521,0-40.04,13.079-48.041,31.704l13.234,13.234
	c2.817-13.41,13.2-24.063,26.467-27.262v30.137h-23.593l16.678,16.678h6.915v6.915l33.113,33.113h13.658
	c7.625,0,13.827-6.202,13.827-13.827v-38.432C308.259,189.217,284.817,165.775,256,165.775z M264.34,183.45
	c14.203,3.425,25.105,15.39,26.953,30.137H264.34V183.45z M291.581,253.615H264.34v-23.35h27.241V253.615z"/>
<linearGradient id="SVGID_13_" gradientUnits="userSpaceOnUse" x1="208.8186" y1="459.163" x2="363.8487" y2="304.133" gradientTransform="matrix(1.0039 0 0 -1.0039 0.1922 516.5609)">
	<stop  offset="0" style="stop-color:#9EB644"/>
	<stop  offset="1" style="stop-color:#738611"/>
</linearGradient>
<circle style="fill:url(#SVGID_13_);" cx="256" cy="101.768" r="101.768"/>
<linearGradient id="SVGID_14_" gradientUnits="userSpaceOnUse" x1="334.5688" y1="335.3431" x2="242.1188" y2="427.7931" gradientTransform="matrix(1.0039 0 0 -1.0039 0.1922 516.5609)">
	<stop  offset="0" style="stop-color:#738611;stop-opacity:0"/>
	<stop  offset="1" style="stop-color:#738611"/>
</linearGradient>
<path style="fill:url(#SVGID_14_);" d="M357.77,101.77c0-2.343-0.086-4.665-0.242-6.969l-40.512-40.512
	c0,0-12.05,13.999-45.233,9.689c-25.759-3.346-55.87,11.913-62.77,47.329l3.902,3.902c1.069-1.245,2.162-2.428,3.272-3.567
	c-0.133,0.472-0.261,0.948-0.384,1.429c-7.509,7.355-14.55,16.487-20.316,27.841c-0.697,1.372-0.668,3.017,0.093,4.355
	c0.704,1.238,1.707,2.658,2.898,3.424l54.813,54.813c0.9,0.023,1.802,0.036,2.709,0.036
	C312.206,203.538,357.77,157.975,357.77,101.77z"/>
<linearGradient id="SVGID_15_" gradientUnits="userSpaceOnUse" x1="219.927" y1="449.9814" x2="303.2471" y2="366.6614" gradientTransform="matrix(1.0039 0 0 -1.0039 0.1922 516.5609)">
	<stop  offset="0" style="stop-color:#FFFFFF"/>
	<stop  offset="1" style="stop-color:#E2EDF2"/>
</linearGradient>
<path style="fill:url(#SVGID_15_);" d="M317.014,54.287c0,0-12.05,13.999-45.233,9.689c-25.759-3.346-55.87,11.913-62.77,47.329
	c27.328-31.802,68.766-28.223,68.766-28.223s-55.196,4.48-82.291,57.828c-0.697,1.372-0.668,3.017,0.093,4.355
	c1.338,2.354,3.752,5.393,6.511,3.267c2.176-1.676,2.284-3.504,5.166-8.443c2.944-5.044,9.161-7.094,14.575-4.905
	C249.339,146.303,314.981,138.853,317.014,54.287z"/>
<g>
</g>
<g>
</g>
<g>
</g>
<g>
</g>
<g>
</g>
<g>
</g>
<g>
</g>
<g>
</g>
<g>
</g>
<g>
</g>
<g>
</g>
<g>
</g>
<g>
</g>
<g>
</g>
<g>
</g>
</svg>
