<?xml version="1.0" encoding="iso-8859-1"?>
<!-- Generator: Adobe Illustrator 19.0.0, SVG Export Plug-In . SVG Version: 6.00 Build 0)  -->
<svg version="1.1" id="Capa_1" xmlns="http://www.w3.org/2000/svg" xmlns:xlink="http://www.w3.org/1999/xlink" x="0px" y="0px"
	 viewBox="0 0 512 512" style="enable-background:new 0 0 512 512;" xml:space="preserve">
<g>
	<g>
		<path d="M497,2.2H136.1H15c-8.3,0-15,6.7-15,15v477.6c0,8.3,6.7,15,15,15h121.1H497c8.3,0,15-6.7,15-15V371.5V17.2
			C512,8.9,505.3,2.2,497,2.2z M121.1,50H86.2c-8.3,0-15,6.7-15,15s6.7,15,15,15h34.9v37.3H86.2c-8.3,0-15,6.7-15,15s6.7,15,15,15
			h34.9v33.3H86.2c-8.3,0-15,6.7-15,15c0,8.3,6.7,15,15,15h34.9v33.3H86.2c-8.3,0-15,6.7-15,15c0,8.3,6.7,15,15,15h34.9v33.3H86.2
			c-8.3,0-15,6.7-15,15s6.7,15,15,15h34.9v33.3H86.2c-8.3,0-15,6.7-15,15s6.7,15,15,15h34.9v33.3H86.2c-8.3,0-15,6.7-15,15
			s6.7,15,15,15h34.9v16.1H30V32.2h91.1V50z M151.1,32.2h154.6v148.3H151.1V32.2z M151.1,210.5h154.6v145.9H151.1V210.5z M482,479.8
			H151.1v-93.3h26.8v37.9c0,8.3,6.7,15,15,15s15-6.7,15-15v-37.9h33.9v37.9c0,8.3,6.7,15,15,15c8.3,0,15-6.7,15-15v-37.9h33.9v37.9
			c0,8.3,6.7,15,15,15s15-6.7,15-15v-37.9h33.9v37.9c0,8.3,6.7,15,15,15s15-6.7,15-15v-37.9h33.9v37.9c0,8.3,6.7,15,15,15
			s15-6.7,15-15v-37.9H482V479.8z M482,356.4H335.7V210.5H482V356.4z M482,180.5H335.7V32.2H482V180.5z"/>
	</g>
</g>
<g>
</g>
<g>
</g>
<g>
</g>
<g>
</g>
<g>
</g>
<g>
</g>
<g>
</g>
<g>
</g>
<g>
</g>
<g>
</g>
<g>
</g>
<g>
</g>
<g>
</g>
<g>
</g>
<g>
</g>
</svg>
