<?xml version="1.0" encoding="iso-8859-1"?>
<!-- Generator: Adobe Illustrator 19.0.0, SVG Export Plug-In . SVG Version: 6.00 Build 0)  -->
<svg version="1.1" id="Capa_1" xmlns="http://www.w3.org/2000/svg" xmlns:xlink="http://www.w3.org/1999/xlink" x="0px" y="0px"
	 viewBox="0 0 512 512" style="enable-background:new 0 0 512 512;" xml:space="preserve">
<g>
	<path style="fill:#FFDB2D;" d="M308.8,130.533l-19.6-22.712c4.385-3.784,6.8-8.63,6.8-13.644s-2.415-9.86-6.8-13.644
		C278.108,70.962,272,58.05,272,44.177s6.108-26.785,17.2-36.356l19.6,22.712c-4.385,3.784-6.8,8.63-6.8,13.644
		s2.415,9.86,6.8,13.644c11.092,9.571,17.2,22.483,17.2,36.356S319.892,120.962,308.8,130.533z"/>
	<path style="fill:#FFDB2D;" d="M391.3,152.533l-19.6-22.712c4.385-3.784,6.8-8.63,6.8-13.644s-2.415-9.86-6.8-13.644
		c-11.092-9.571-17.2-22.483-17.2-36.356s6.108-26.785,17.2-36.356l19.6,22.712c-4.385,3.784-6.8,8.63-6.8,13.644
		s2.415,9.86,6.8,13.644c11.092,9.571,17.2,22.483,17.2,36.356S402.392,142.962,391.3,152.533z"/>
	<path style="fill:#FFDB2D;" d="M481.8,202.533l-19.6-22.712c4.385-3.784,6.8-8.63,6.8-13.644s-2.415-9.86-6.8-13.644
		c-11.092-9.571-17.2-22.483-17.2-36.356s6.108-26.785,17.2-36.356l19.6,22.712c-4.385,3.784-6.8,8.63-6.8,13.644
		s2.415,9.86,6.8,13.644c11.092,9.571,17.2,22.483,17.2,36.356S492.892,192.962,481.8,202.533z"/>
</g>
<g>
	<path style="fill:#FFE670;" d="M203.2,130.533c-11.092-9.571-17.2-22.483-17.2-36.356s6.108-26.785,17.2-36.356
		c4.385-3.784,6.8-8.63,6.8-13.644s-2.415-9.86-6.8-13.644l19.6-22.712c11.092,9.571,17.2,22.483,17.2,36.356
		s-6.108,26.785-17.2,36.356c-4.385,3.784-6.8,8.63-6.8,13.644s2.415,9.86,6.8,13.644L203.2,130.533z"/>
	<path style="fill:#FFE670;" d="M120.7,152.533c-11.092-9.571-17.2-22.483-17.2-36.356s6.108-26.785,17.2-36.356
		c4.385-3.784,6.8-8.63,6.8-13.644s-2.415-9.86-6.8-13.644l19.6-22.712c11.092,9.571,17.2,22.483,17.2,36.356
		s-6.108,26.785-17.2,36.356c-4.385,3.784-6.8,8.63-6.8,13.644s2.415,9.86,6.8,13.644L120.7,152.533z"/>
	<path style="fill:#FFE670;" d="M30.2,202.533C19.108,192.962,13,180.05,13,166.177s6.108-26.785,17.2-36.356
		c4.385-3.784,6.8-8.63,6.8-13.644s-2.415-9.86-6.8-13.644l19.6-22.712C60.892,89.392,67,102.304,67,116.177
		s-6.108,26.785-17.2,36.356c-4.385,3.784-6.8,8.63-6.8,13.644s2.415,9.86,6.8,13.644L30.2,202.533z"/>
</g>
<path style="fill:#FFB74F;" d="M421,206.177c0-49.626-40.374-90-90-90c-31.271,0-58.863,16.034-75,40.31
	c-16.137-24.275-43.729-40.31-75-40.31c-49.626,0-90,40.374-90,90l90,30l75-25l75,25L421,206.177z"/>
<path style="fill:#FF9A00;" d="M331,116.177c-31.271,0-58.863,16.034-75,40.31v54.69l75,25l90-30
	C421,156.551,380.626,116.177,331,116.177z"/>
<path style="fill:#FF4F19;" d="M496,269.177H316c0-49.626,40.374-90,90-90S496,219.551,496,269.177z"/>
<path style="fill:#FF7A53;" d="M196,269.177H16c0-49.626,40.374-90,90-90S196,219.551,196,269.177z"/>
<path style="fill:#FF3200;" d="M346,269.177H166c0-49.626,40.374-90,90-90S346,219.551,346,269.177z"/>
<path style="fill:#CA1C00;" d="M256,179.177v90h90C346,219.551,305.626,179.177,256,179.177z"/>
<path style="fill:#C8AD92;" d="M512,504.177H0v-250h512V504.177z"/>
<rect x="256" y="254.179" style="fill:#A17852;" width="256" height="250"/>
<g>
	<rect x="241" y="313.179" style="fill:#FFB74F;" width="30" height="132"/>
	<rect x="61" y="313.179" style="fill:#FFB74F;" width="30" height="132"/>
	<rect x="121" y="313.179" style="fill:#FFB74F;" width="30" height="132"/>
	<rect x="181" y="313.179" style="fill:#FFB74F;" width="30" height="132"/>
</g>
<g>
	<rect x="301" y="313.179" style="fill:#FF9A00;" width="30" height="132"/>
	<rect x="361" y="313.179" style="fill:#FF9A00;" width="30" height="132"/>
	<rect x="421" y="313.179" style="fill:#FF9A00;" width="30" height="132"/>
	<rect x="256" y="313.179" style="fill:#FF9A00;" width="15" height="132"/>
</g>
<g>
</g>
<g>
</g>
<g>
</g>
<g>
</g>
<g>
</g>
<g>
</g>
<g>
</g>
<g>
</g>
<g>
</g>
<g>
</g>
<g>
</g>
<g>
</g>
<g>
</g>
<g>
</g>
<g>
</g>
</svg>
